<?xml version="1.0" standalone="no"?>
<!DOCTYPE svg PUBLIC "-//W3C//DTD SVG 20010904//EN"
 "http://www.w3.org/TR/2001/REC-SVG-20010904/DTD/svg10.dtd">
<svg version="1.0" xmlns="http://www.w3.org/2000/svg"
 width="16.000000pt" height="16.000000pt" viewBox="0 0 16.000000 16.000000"
 preserveAspectRatio="xMidYMid meet">

<g transform="translate(0.000000,16.000000) scale(0.100000,-0.100000)"
fill="#000000" stroke="none">
<path d="M0 80 l0 -80 80 0 80 0 0 80 0 80 -80 0 -80 0 0 -80z m150 0 l0 -70
-70 0 -70 0 0 70 0 70 70 0 70 0 0 -70z"/>
<path d="M20 100 c0 -22 5 -40 10 -40 6 0 10 4 10 9 0 5 9 11 20 14 17 4 20 0
20 -29 0 -31 3 -34 30 -34 35 0 40 17 8 23 -23 4 -23 5 2 13 l25 8 -25 7 c-24
7 -24 7 -2 8 33 1 27 21 -7 21 -20 0 -30 6 -34 20 -3 14 -14 20 -31 20 -24 0
-26 -4 -26 -40z m40 10 c0 -5 -4 -10 -10 -10 -5 0 -10 5 -10 10 0 6 5 10 10
10 6 0 10 -4 10 -10z"/>
</g>
</svg>
